<svg width="17" height="17" viewBox="0 0 17 17" fill="none" xmlns="http://www.w3.org/2000/svg">
<path fill-rule="evenodd" clip-rule="evenodd" d="M1.08162 7.96875H3.72725C3.75912 7.03694 3.87387 6.14337 4.05875 5.3125H1.77863C1.38244 6.14662 1.14603 7.04757 1.08162 7.96875ZM2.39594 4.25H4.34562C4.52271 3.68562 4.7503 3.13834 5.02563 2.61481C5.20934 2.26743 5.4215 1.93586 5.65994 1.6235C4.34347 2.16939 3.21084 3.08081 2.39594 4.25ZM8.5 0C6.24566 0 4.08365 0.895533 2.48959 2.48959C0.895533 4.08365 0 6.24566 0 8.5C0 10.7543 0.895533 12.9163 2.48959 14.5104C4.08365 16.1045 6.24566 17 8.5 17C10.7543 17 12.9163 16.1045 14.5104 14.5104C16.1045 12.9163 17 10.7543 17 8.5C17 6.24566 16.1045 4.08365 14.5104 2.48959C12.9163 0.895533 10.7543 0 8.5 0V0ZM7.96875 1.14431C7.25688 1.36106 6.55031 2.01556 5.96381 3.11525C5.78 3.4595 5.61319 3.83987 5.46656 4.25H7.96875V1.14431ZM7.96875 5.3125H5.14994C4.94096 6.18354 4.82064 7.07349 4.79081 7.96875H7.96875V5.3125ZM9.03125 7.96875V5.3125H11.8501C12.0487 6.12531 12.1752 7.021 12.2092 7.96875H9.03125ZM7.96875 9.03125H4.79188C4.82135 9.92648 4.94132 10.8164 5.14994 11.6875H7.96875V9.03125ZM9.03125 11.6875V9.03125H12.2081C12.1787 9.92648 12.0587 10.8164 11.8501 11.6875H9.03125ZM7.96875 12.75H5.46656C5.61319 13.1601 5.78 13.5405 5.96381 13.8847C6.55031 14.9844 7.25794 15.6379 7.96875 15.8557V12.75ZM5.65994 15.3765C5.42148 15.0642 5.20932 14.7326 5.02563 14.3852C4.7503 13.8617 4.52271 13.3144 4.34562 12.75H2.39594C3.21084 13.9192 4.34347 14.8306 5.65994 15.3765ZM1.77863 11.6875H4.05875C3.86661 10.8142 3.75563 9.92499 3.72725 9.03125H1.08162C1.1475 9.97688 1.39081 10.8726 1.77863 11.6875ZM11.3401 15.3765C12.6565 14.8306 13.7892 13.9192 14.6041 12.75H12.6554C12.4779 13.3144 12.25 13.8617 11.9744 14.3852C11.7907 14.7326 11.5785 15.0642 11.3401 15.3765ZM11.5334 12.75H9.03125V15.8557C9.74312 15.6389 10.4497 14.9844 11.0362 13.8847C11.2294 13.5191 11.3956 13.1399 11.5334 12.75ZM12.9412 11.6875H15.2214C15.6092 10.8726 15.8525 9.97688 15.9184 9.03125H13.2727C13.2444 9.92499 13.1334 10.8142 12.9412 11.6875ZM13.2727 7.96875H15.9184C15.8539 7.04758 15.6175 6.14662 15.2214 5.3125H12.9412C13.1261 6.14337 13.2409 7.03694 13.2727 7.96875ZM12.6544 4.25C12.4772 3.68564 12.2496 3.13837 11.9744 2.61481C11.7907 2.26741 11.5785 1.93584 11.3401 1.6235C12.6565 2.16939 13.7892 3.08081 14.6041 4.25H12.6554H12.6544ZM11.5334 4.25H9.03125V1.14431C9.74312 1.36106 10.4497 2.01556 11.0362 3.11525C11.22 3.4595 11.3868 3.83987 11.5334 4.25Z" fill="#3F3232"/>
</svg>
