<svg width="19" height="14" viewBox="0 0 19 14" fill="none" xmlns="http://www.w3.org/2000/svg">
<path d="M14.727 11.7218L14.7778 11.7686L14.8286 11.7218L17.7333 9.04641L18.8893 10.1111L14.7778 13.898L11.9329 11.2778L13.0889 10.2131L14.727 11.7218ZM1.68889 10.9639H10.0583V12.3694H1.68889C0.795495 12.3694 0.075 11.6973 0.075 10.8889V1.55556C0.075 0.747109 0.795495 0.075 1.68889 0.075H15.2C16.0934 0.075 16.8139 0.747109 16.8139 1.55556V6.925H15.275V3.11111V2.9814L15.1626 3.04611L8.44444 6.91346L1.72631 3.04611L1.61389 2.9814V3.11111V10.8889V10.9639H1.68889ZM15.2374 1.62056L15.4806 1.48056H15.2H1.68889H1.40827L1.65147 1.62056L8.40703 5.50944L8.44444 5.53098L8.48186 5.50944L15.2374 1.62056Z" fill="#3F3232" stroke="white" stroke-width="0.15"/>
</svg>
