<svg width="25" height="25" viewBox="0 0 25 25" fill="none" xmlns="http://www.w3.org/2000/svg">
<g clip-path="url(#clip0_401_8)">
<path d="M17.7021 8.42592L17.4346 7.5455C17.0949 6.5454 16.0087 6.01014 15.0086 6.34993C14.4459 6.54107 14.0041 6.9829 13.813 7.5455L13.5455 8.42592C13.3204 9.16842 13.2731 9.95347 13.4076 10.7176C13.5302 11.3609 13.9386 11.9136 14.5176 12.2197L14.218 18.9168C14.1779 19.2906 14.2991 19.6637 14.5513 19.9426C15.0937 20.5358 16.0143 20.5771 16.6075 20.0347C16.6396 20.0054 16.6703 19.9747 16.6996 19.9426C16.9462 19.6717 17.0672 19.3094 17.033 18.9447L16.7317 12.2188C17.3099 11.9126 17.7177 11.3603 17.8401 10.7176C17.9745 9.95347 17.9272 9.16842 17.7021 8.42592ZM17.0192 10.5726C16.929 11.0348 16.5996 11.414 16.1546 11.568C15.9857 11.6315 15.8769 11.7965 15.8851 11.9768L16.2017 19.0105C16.2163 19.1485 16.1708 19.286 16.0767 19.388C15.8258 19.6364 15.4218 19.6364 15.1709 19.388C15.0721 19.2778 15.0273 19.1295 15.0484 18.983L15.3626 11.9768C15.3707 11.7965 15.2619 11.6315 15.093 11.568C14.648 11.414 14.3186 11.0348 14.2284 10.5726C14.1169 9.93821 14.1562 9.28649 14.343 8.67009L14.6105 7.78925C14.8175 7.22962 15.4389 6.94373 15.9986 7.15071C16.2945 7.26014 16.5277 7.49342 16.6371 7.78925L16.9046 8.67009C17.0912 9.28654 17.1305 9.93821 17.0192 10.5726Z" fill="#FF9401"/>
<path d="M11.2492 6.25C11.0191 6.25 10.8325 6.43656 10.8325 6.66667V10.2442L9.7046 11.3721C9.62117 11.4552 9.57679 11.5698 9.58252 11.6875L9.9471 18.9792C9.9558 19.1364 9.89872 19.2902 9.7896 19.4038C9.56153 19.6339 9.19007 19.6355 8.95992 19.4074C8.95867 19.4062 8.95747 19.4049 8.95627 19.4038C8.8471 19.2902 8.79007 19.1364 8.79877 18.9792L9.16585 11.6875C9.17169 11.5699 9.12747 11.4553 9.04419 11.3721L7.91585 10.2442V6.66667C7.91585 6.43656 7.72929 6.25 7.49919 6.25C7.26908 6.25 7.08252 6.43656 7.08252 6.66667V10.4167C7.08252 10.5272 7.12648 10.6331 7.2046 10.7113L8.32377 11.8308L7.96835 18.9388C7.93054 19.7152 8.52929 20.3753 9.3057 20.4131C10.0821 20.4509 10.7422 19.8521 10.78 19.0757C10.7823 19.0301 10.7823 18.9844 10.78 18.9388L10.4246 11.8309L11.5438 10.7113C11.6219 10.6332 11.6659 10.5272 11.6659 10.4167V6.66672C11.6659 6.43656 11.4793 6.25 11.2492 6.25Z" fill="#FF9401"/>
<path d="M8.74919 6.25C8.51908 6.25 8.33252 6.43656 8.33252 6.66667V10C8.33252 10.2301 8.51908 10.4167 8.74919 10.4167C8.97929 10.4167 9.16585 10.2301 9.16585 10V6.66667C9.16585 6.43656 8.97929 6.25 8.74919 6.25Z" fill="#FF9401"/>
<path d="M9.99919 6.25C9.76908 6.25 9.58252 6.43656 9.58252 6.66667V10C9.58252 10.2301 9.76908 10.4167 9.99919 10.4167C10.2293 10.4167 10.4159 10.2301 10.4159 10V6.66667C10.4159 6.43656 10.2293 6.25 9.99919 6.25Z" fill="#FF9401"/>
<path d="M12.5 0C5.59646 0 0 5.59646 0 12.5C0 19.4035 5.59646 25 12.5 25C19.4035 25 25 19.4035 25 12.5C24.9922 5.59969 19.4003 0.0078125 12.5 0ZM12.5 24.1667C6.05667 24.1667 0.833333 18.9433 0.833333 12.5C0.833333 6.05667 6.05667 0.833333 12.5 0.833333C18.9433 0.833333 24.1667 6.05667 24.1667 12.5C24.1593 18.9403 18.9403 24.1593 12.5 24.1667Z" fill="#2E2E2E"/>
<path d="M13.8525 20.3213C13.8301 20.0923 13.6263 19.9248 13.3973 19.9471C13.3919 19.9476 13.3865 19.9483 13.3812 19.949L13.3828 19.9486C12.7962 20.0167 12.2036 20.0167 11.617 19.9486C11.3883 19.9218 11.1813 20.0854 11.1545 20.314C11.1277 20.5426 11.2913 20.7497 11.5199 20.7765C12.1705 20.8525 12.8277 20.8525 13.4782 20.7765C13.7073 20.7542 13.8748 20.5504 13.8525 20.3213Z" fill="#2E2E2E"/>
<path d="M18.8748 7.13091C18.7269 6.95461 18.4641 6.93153 18.2878 7.07945C18.2872 7.07992 18.2867 7.08044 18.286 7.08091C18.1102 7.22924 18.0878 7.49205 18.236 7.66799C20.7483 10.6503 20.5561 15.0601 17.794 17.8126C17.6309 17.975 17.6305 18.2389 17.7929 18.402C17.9554 18.565 18.2193 18.5654 18.3823 18.403C21.4519 15.345 21.666 10.4449 18.8748 7.13091Z" fill="#2E2E2E"/>
<path d="M9.71014 5.5077C9.70978 5.5077 9.70942 5.50763 9.70906 5.50763C9.70849 5.50763 9.70792 5.5077 9.70728 5.5077H9.71014Z" fill="#2E2E2E"/>
<path d="M14.4667 4.39979C12.8383 4.00953 11.1305 4.11443 9.5621 4.70104C9.34669 4.78203 9.23778 5.02234 9.31877 5.23771C9.37981 5.40005 9.53502 5.5075 9.70841 5.50766C9.75825 5.5074 9.80762 5.49828 9.85419 5.48063C11.2666 4.95245 12.8045 4.85813 14.2709 5.20979C14.4946 5.26386 14.7197 5.12641 14.7738 4.90271C14.8278 4.67901 14.6904 4.45386 14.4667 4.39979Z" fill="#2E2E2E"/>
<path d="M7.18629 17.7915C5.78165 16.3892 4.99441 14.4846 4.9992 12.4998C4.99509 10.9141 5.49738 9.36847 6.43295 8.08815C6.57124 7.9042 6.5342 7.643 6.35025 7.50472C6.16629 7.36643 5.90509 7.40347 5.76681 7.58742C5.76436 7.59071 5.76196 7.59399 5.75962 7.59732C3.35061 10.9092 3.70509 15.4806 6.59587 18.3815C6.75879 18.5445 7.02306 18.5446 7.18608 18.3817C7.3491 18.2188 7.34921 17.9545 7.18629 17.7915Z" fill="#2E2E2E"/>
</g>
<defs>
<clipPath id="clip0_401_8">
<rect width="25" height="25" fill="white"/>
</clipPath>
</defs>
</svg>
