<svg width="52" height="52" viewBox="0 0 52 52" fill="none" xmlns="http://www.w3.org/2000/svg">
<g clip-path="url(#clip0_401_232)">
<path d="M26 3.25C38.675 3.25 48.75 13.325 48.75 26C48.75 38.675 38.675 48.75 26 48.75C13.325 48.75 3.25 38.675 3.25 26C3.25 13.325 13.325 3.25 26 3.25ZM26 0C11.7 0 0 11.7 0 26C0 40.3 11.7 52 26 52C40.3 52 52 40.3 52 26C52 11.7 40.3 0 26 0Z" fill="#2E2E2E"/>
<path d="M25.9998 42.8999C19.4998 42.8999 13.6498 38.9999 11.0498 32.8249L13.9748 31.5249C15.9248 36.3999 20.7998 39.3249 25.9998 39.3249C31.1998 39.3249 36.0748 36.0749 38.0248 31.5249L40.9498 32.8249C38.3498 39.3249 32.4998 42.8999 25.9998 42.8999Z" fill="#FF9401"/>
<path d="M22.75 19.5C22.75 20.362 22.4076 21.1886 21.7981 21.7981C21.1886 22.4076 20.362 22.75 19.5 22.75C18.638 22.75 17.8114 22.4076 17.2019 21.7981C16.5924 21.1886 16.25 20.362 16.25 19.5C16.25 18.638 16.5924 17.8114 17.2019 17.2019C17.8114 16.5924 18.638 16.25 19.5 16.25C20.362 16.25 21.1886 16.5924 21.7981 17.2019C22.4076 17.8114 22.75 18.638 22.75 19.5Z" fill="#FF9401"/>
<path d="M35.75 19.5C35.75 20.362 35.4076 21.1886 34.7981 21.7981C34.1886 22.4076 33.362 22.75 32.5 22.75C31.638 22.75 30.8114 22.4076 30.2019 21.7981C29.5924 21.1886 29.25 20.362 29.25 19.5C29.25 18.638 29.5924 17.8114 30.2019 17.2019C30.8114 16.5924 31.638 16.25 32.5 16.25C33.362 16.25 34.1886 16.5924 34.7981 17.2019C35.4076 17.8114 35.75 18.638 35.75 19.5Z" fill="#FF9401"/>
</g>
<defs>
<clipPath id="clip0_401_232">
<rect width="52" height="52" fill="white"/>
</clipPath>
</defs>
</svg>
