<svg width="35" height="35" viewBox="0 0 35 35" fill="none" xmlns="http://www.w3.org/2000/svg">
<circle cx="17.5" cy="17.5" r="17.5" fill="white"/>
<path d="M16.9978 13.8801C14.7264 13.8801 12.8932 15.7062 12.8932 17.9689C12.8932 20.2316 14.7264 22.0577 16.9978 22.0577C19.2693 22.0577 21.1025 20.2316 21.1025 17.9689C21.1025 15.7062 19.2693 13.8801 16.9978 13.8801ZM16.9978 20.6263C15.5289 20.6263 14.3301 19.4322 14.3301 17.9689C14.3301 16.5056 15.5289 15.3115 16.9978 15.3115C18.4668 15.3115 19.6656 16.5056 19.6656 17.9689C19.6656 19.4322 18.4668 20.6263 16.9978 20.6263ZM21.2707 12.7597C20.7403 12.7597 20.312 13.1863 20.312 13.7146C20.312 14.2429 20.7403 14.6695 21.2707 14.6695C21.801 14.6695 22.2293 14.2449 22.2293 13.7146C22.2294 13.5892 22.2048 13.4649 22.1566 13.349C22.1085 13.2331 22.0379 13.1277 21.9489 13.039C21.8598 12.9503 21.7541 12.88 21.6377 12.8321C21.5213 12.7841 21.3966 12.7595 21.2707 12.7597ZM24.9991 17.9689C24.9991 16.8685 25.0091 15.778 24.9471 14.6795C24.885 13.4036 24.5928 12.2713 23.6562 11.3383C22.7176 10.4033 21.5829 10.1142 20.302 10.0524C19.1973 9.99063 18.1026 10.0006 16.9999 10.0006C15.8951 10.0006 14.8004 9.99063 13.6977 10.0524C12.4168 10.1142 11.2801 10.4053 10.3435 11.3383C9.40486 12.2733 9.11467 13.4036 9.05263 14.6795C8.99059 15.78 9.0006 16.8704 9.0006 17.9689C9.0006 19.0674 8.99059 20.1598 9.05263 21.2583C9.11467 22.5342 9.40686 23.6665 10.3435 24.5995C11.2821 25.5345 12.4168 25.8236 13.6977 25.8854C14.8024 25.9472 15.8971 25.9372 16.9999 25.9372C18.1046 25.9372 19.1993 25.9472 20.302 25.8854C21.5829 25.8236 22.7196 25.5325 23.6562 24.5995C24.5948 23.6645 24.885 22.5342 24.9471 21.2583C25.0111 20.1598 24.9991 19.0694 24.9991 17.9689ZM23.238 22.6697C23.0919 23.0326 22.9157 23.3037 22.6336 23.5828C22.3514 23.8639 22.0812 24.0393 21.717 24.1849C20.6643 24.6015 18.1646 24.5078 16.9978 24.5078C15.8311 24.5078 13.3294 24.6015 12.2767 24.1869C11.9125 24.0413 11.6403 23.8659 11.3601 23.5848C11.078 23.3037 10.9018 23.0346 10.7557 22.6717C10.3395 21.6211 10.4335 19.1312 10.4335 17.9689C10.4335 16.8067 10.3395 14.3147 10.7557 13.2661C10.9018 12.9032 11.078 12.6321 11.3601 12.353C11.6423 12.0739 11.9125 11.8965 12.2767 11.7509C13.3294 11.3363 15.8311 11.43 16.9978 11.43C18.1646 11.43 20.6663 11.3363 21.719 11.7509C22.0832 11.8965 22.3554 12.0719 22.6356 12.353C22.9177 12.6341 23.0939 12.9032 23.24 13.2661C23.6562 14.3147 23.5622 16.8067 23.5622 17.9689C23.5622 19.1312 23.6562 21.6211 23.238 22.6697Z" fill="#2E2E2E"/>
</svg>
