<svg width="25" height="25" viewBox="0 0 25 25" fill="none" xmlns="http://www.w3.org/2000/svg">
<g clip-path="url(#clip0_401_279)">
<path d="M17.7021 8.42574L17.4346 7.54532C17.0949 6.54521 16.0087 6.00995 15.0086 6.34975C14.4459 6.54089 14.0041 6.98271 13.813 7.54532L13.5455 8.42574C13.3204 9.16824 13.2731 9.95329 13.4076 10.7174C13.5302 11.3607 13.9386 11.9134 14.5176 12.2195L14.218 18.9166C14.1779 19.2904 14.2991 19.6636 14.5513 19.9424C15.0937 20.5356 16.0143 20.5769 16.6075 20.0345C16.6396 20.0052 16.6703 19.9745 16.6996 19.9424C16.9462 19.6715 17.0672 19.3092 17.033 18.9445L16.7317 12.2187C17.3099 11.9125 17.7177 11.3601 17.8401 10.7174C17.9745 9.95329 17.9272 9.16824 17.7021 8.42574ZM17.0192 10.5724C16.929 11.0346 16.5996 11.4138 16.1546 11.5678C15.9857 11.6313 15.8769 11.7963 15.8851 11.9766L16.2017 19.0103C16.2163 19.1483 16.1708 19.2858 16.0767 19.3878C15.8258 19.6362 15.4218 19.6362 15.1709 19.3878C15.0721 19.2776 15.0273 19.1293 15.0484 18.9828L15.3626 11.9766C15.3707 11.7963 15.2619 11.6313 15.093 11.5678C14.648 11.4138 14.3186 11.0346 14.2284 10.5724C14.1169 9.93803 14.1562 9.28631 14.343 8.6699L14.6105 7.78907C14.8175 7.22943 15.4389 6.94355 15.9986 7.15053C16.2945 7.25995 16.5277 7.49324 16.6371 7.78907L16.9046 8.6699C17.0912 9.28636 17.1305 9.93803 17.0192 10.5724Z" fill="#FF9401"/>
<path d="M11.2492 6.25C11.0191 6.25 10.8325 6.43656 10.8325 6.66667V10.2442L9.7046 11.3721C9.62117 11.4552 9.57679 11.5698 9.58252 11.6875L9.9471 18.9792C9.9558 19.1364 9.89872 19.2902 9.7896 19.4038C9.56153 19.6339 9.19007 19.6355 8.95992 19.4074C8.95867 19.4062 8.95747 19.4049 8.95627 19.4038C8.8471 19.2902 8.79007 19.1364 8.79877 18.9792L9.16585 11.6875C9.17169 11.5699 9.12747 11.4553 9.04419 11.3721L7.91585 10.2442V6.66667C7.91585 6.43656 7.72929 6.25 7.49919 6.25C7.26908 6.25 7.08252 6.43656 7.08252 6.66667V10.4167C7.08252 10.5272 7.12648 10.6331 7.2046 10.7113L8.32377 11.8308L7.96835 18.9388C7.93054 19.7152 8.52929 20.3753 9.3057 20.4131C10.0821 20.4509 10.7422 19.8521 10.78 19.0757C10.7823 19.0301 10.7823 18.9844 10.78 18.9388L10.4246 11.8309L11.5438 10.7113C11.6219 10.6332 11.6659 10.5272 11.6659 10.4167V6.66672C11.6659 6.43656 11.4793 6.25 11.2492 6.25Z" fill="#FF9401"/>
<path d="M8.74919 6.25C8.51908 6.25 8.33252 6.43656 8.33252 6.66667V10C8.33252 10.2301 8.51908 10.4167 8.74919 10.4167C8.97929 10.4167 9.16585 10.2301 9.16585 10V6.66667C9.16585 6.43656 8.97929 6.25 8.74919 6.25Z" fill="#FF9401"/>
<path d="M9.99919 6.25C9.76908 6.25 9.58252 6.43656 9.58252 6.66667V10C9.58252 10.2301 9.76908 10.4167 9.99919 10.4167C10.2293 10.4167 10.4159 10.2301 10.4159 10V6.66667C10.4159 6.43656 10.2293 6.25 9.99919 6.25Z" fill="#FF9401"/>
<path d="M12.5 0C5.59646 0 0 5.59646 0 12.5C0 19.4035 5.59646 25 12.5 25C19.4035 25 25 19.4035 25 12.5C24.9922 5.59969 19.4003 0.0078125 12.5 0ZM12.5 24.1667C6.05667 24.1667 0.833333 18.9433 0.833333 12.5C0.833333 6.05667 6.05667 0.833333 12.5 0.833333C18.9433 0.833333 24.1667 6.05667 24.1667 12.5C24.1593 18.9403 18.9403 24.1593 12.5 24.1667Z" fill="#2E2E2E"/>
<path d="M13.8525 20.3215C13.8301 20.0925 13.6263 19.925 13.3973 19.9473C13.3919 19.9478 13.3865 19.9485 13.3812 19.9492L13.3828 19.9488C12.7962 20.0169 12.2036 20.0169 11.617 19.9488C11.3883 19.9219 11.1813 20.0855 11.1545 20.3142C11.1277 20.5428 11.2913 20.7499 11.5199 20.7767C12.1705 20.8527 12.8277 20.8527 13.4782 20.7767C13.7073 20.7544 13.8748 20.5506 13.8525 20.3215Z" fill="#2E2E2E"/>
<path d="M18.8748 7.13085C18.7269 6.95455 18.4641 6.93147 18.2878 7.07939C18.2872 7.07986 18.2867 7.08038 18.286 7.08085C18.1102 7.22918 18.0878 7.49199 18.236 7.66793C20.7483 10.6502 20.5561 15.0601 17.794 17.8125C17.6309 17.975 17.6305 18.2389 17.7929 18.4019C17.9554 18.5649 18.2193 18.5654 18.3823 18.4029C21.4519 15.345 21.666 10.4449 18.8748 7.13085Z" fill="#2E2E2E"/>
<path d="M14.4667 4.39998C12.8383 4.00972 11.1305 4.11461 9.5621 4.70123C9.34669 4.78222 9.23778 5.02253 9.31877 5.23789C9.37981 5.40024 9.53502 5.50768 9.70841 5.50784C9.75825 5.50758 9.80762 5.49847 9.85419 5.48081C11.2666 4.95263 12.8045 4.85831 14.2709 5.20998C14.4946 5.26404 14.7197 5.12659 14.7738 4.90289C14.8278 4.67919 14.6904 4.45404 14.4667 4.39998Z" fill="#2E2E2E"/>
<path d="M7.18629 17.7913C5.78165 16.3891 4.99441 14.4844 4.9992 12.4996C4.99509 10.9139 5.49738 9.36828 6.43295 8.08797C6.57124 7.90401 6.5342 7.64281 6.35025 7.50453C6.16629 7.36625 5.90509 7.40328 5.76681 7.58724C5.76436 7.59052 5.76196 7.5938 5.75962 7.59714C3.35061 10.909 3.70509 15.4804 6.59587 18.3813C6.75879 18.5443 7.02306 18.5444 7.18608 18.3815C7.3491 18.2186 7.34921 17.9543 7.18629 17.7913Z" fill="#2E2E2E"/>
</g>
<defs>
<clipPath id="clip0_401_279">
<rect width="25" height="25" fill="white"/>
</clipPath>
</defs>
</svg>
