<svg width="108" height="52" viewBox="0 0 108 52" fill="none" xmlns="http://www.w3.org/2000/svg">
<g clip-path="url(#clip0_5104_2)">
<path d="M26 3.25C38.675 3.25 48.75 13.325 48.75 26C48.75 38.675 38.675 48.75 26 48.75C13.325 48.75 3.25 38.675 3.25 26C3.25 13.325 13.325 3.25 26 3.25ZM26 0C11.7 0 0 11.7 0 26C0 40.3 11.7 52 26 52C40.3 52 52 40.3 52 26C52 11.7 40.3 0 26 0Z" fill="#2E2E2E"/>
<path d="M25.9998 42.8999C19.4998 42.8999 13.6498 38.9999 11.0498 32.8249L13.9748 31.5249C15.9248 36.3999 20.7998 39.3249 25.9998 39.3249C31.1998 39.3249 36.0748 36.0749 38.0248 31.5249L40.9498 32.8249C38.3498 39.3249 32.4998 42.8999 25.9998 42.8999Z" fill="#FF9401"/>
<path d="M22.75 19.5C22.75 20.362 22.4076 21.1886 21.7981 21.7981C21.1886 22.4076 20.362 22.75 19.5 22.75C18.638 22.75 17.8114 22.4076 17.2019 21.7981C16.5924 21.1886 16.25 20.362 16.25 19.5C16.25 18.638 16.5924 17.8114 17.2019 17.2019C17.8114 16.5924 18.638 16.25 19.5 16.25C20.362 16.25 21.1886 16.5924 21.7981 17.2019C22.4076 17.8114 22.75 18.638 22.75 19.5Z" fill="#FF9401"/>
<path d="M35.75 19.5C35.75 20.362 35.4076 21.1886 34.7981 21.7981C34.1886 22.4076 33.362 22.75 32.5 22.75C31.638 22.75 30.8114 22.4076 30.2019 21.7981C29.5924 21.1886 29.25 20.362 29.25 19.5C29.25 18.638 29.5924 17.8114 30.2019 17.2019C30.8114 16.5924 31.638 16.25 32.5 16.25C33.362 16.25 34.1886 16.5924 34.7981 17.2019C35.4076 17.8114 35.75 18.638 35.75 19.5Z" fill="#FF9401"/>
</g>
<g clip-path="url(#clip1_5104_2)">
<path d="M82 3.25C94.675 3.25 104.75 13.325 104.75 26C104.75 38.675 94.675 48.75 82 48.75C69.325 48.75 59.25 38.675 59.25 26C59.25 13.325 69.325 3.25 82 3.25ZM82 0C67.7 0 56 11.7 56 26C56 40.3 67.7 52 82 52C96.3 52 108 40.3 108 26C108 11.7 96.3 0 82 0Z" fill="#2E2E2E"/>
<path d="M81.9998 42.8999C75.4998 42.8999 69.6498 38.9999 67.0498 32.8249L69.9748 31.5249C71.9248 36.3999 76.7998 39.3249 81.9998 39.3249C87.1998 39.3249 92.0748 36.0749 94.0248 31.5249L96.9498 32.8249C94.3498 39.3249 88.4998 42.8999 81.9998 42.8999Z" fill="#FF9401"/>
<path d="M78.75 19.5C78.75 20.362 78.4076 21.1886 77.7981 21.7981C77.1886 22.4076 76.362 22.75 75.5 22.75C74.638 22.75 73.8114 22.4076 73.2019 21.7981C72.5924 21.1886 72.25 20.362 72.25 19.5C72.25 18.638 72.5924 17.8114 73.2019 17.2019C73.8114 16.5924 74.638 16.25 75.5 16.25C76.362 16.25 77.1886 16.5924 77.7981 17.2019C78.4076 17.8114 78.75 18.638 78.75 19.5Z" fill="#FF9401"/>
<path d="M91.75 19.5C91.75 20.362 91.4076 21.1886 90.7981 21.7981C90.1886 22.4076 89.362 22.75 88.5 22.75C87.638 22.75 86.8114 22.4076 86.2019 21.7981C85.5924 21.1886 85.25 20.362 85.25 19.5C85.25 18.638 85.5924 17.8114 86.2019 17.2019C86.8114 16.5924 87.638 16.25 88.5 16.25C89.362 16.25 90.1886 16.5924 90.7981 17.2019C91.4076 17.8114 91.75 18.638 91.75 19.5Z" fill="#FF9401"/>
</g>
<defs>
<clipPath id="clip0_5104_2">
<rect width="52" height="52" fill="white"/>
</clipPath>
<clipPath id="clip1_5104_2">
<rect width="52" height="52" fill="white" transform="translate(56)"/>
</clipPath>
</defs>
</svg>
