<svg width="35" height="35" viewBox="0 0 35 35" fill="none" xmlns="http://www.w3.org/2000/svg">
<circle cx="17.5" cy="17.5" r="17.5" fill="white"/>
<path d="M25.633 13.9625C25.646 14.1368 25.646 14.3102 25.646 14.4835C25.646 19.7878 21.593 25.8999 14.186 25.8999C11.904 25.8999 9.784 25.2415 8 24.0979C8.324 24.1348 8.636 24.1477 8.973 24.1477C10.786 24.1521 12.5476 23.5482 13.974 22.4334C13.1334 22.4183 12.3186 22.142 11.6432 21.6433C10.9679 21.1445 10.4658 20.4481 10.207 19.6513C10.456 19.6882 10.706 19.7131 10.968 19.7131C11.329 19.7131 11.692 19.6633 12.029 19.5766C11.1168 19.3931 10.2965 18.9006 9.70762 18.1827C9.11876 17.4649 8.79769 16.566 8.799 15.639V15.5892C9.336 15.887 9.959 16.0733 10.619 16.0982C10.0661 15.7322 9.61272 15.2356 9.29934 14.6526C8.98596 14.0697 8.82231 13.4185 8.823 12.7572C8.823 12.0121 9.022 11.3288 9.371 10.7331C10.3831 11.9733 11.6455 12.9879 13.0763 13.7112C14.5072 14.4344 16.0746 14.8503 17.677 14.9317C17.615 14.6329 17.577 14.3231 17.577 14.0123C17.5767 13.4853 17.6807 12.9635 17.8831 12.4766C18.0854 11.9897 18.3821 11.5472 18.7562 11.1746C19.1303 10.802 19.5744 10.5064 20.0632 10.3049C20.5521 10.1033 21.076 9.99974 21.605 10C22.765 10 23.812 10.4841 24.548 11.2671C25.4498 11.0933 26.3145 10.7654 27.104 10.2978C26.8034 11.225 26.1738 12.0112 25.333 12.5092C26.1328 12.4183 26.9144 12.2088 27.652 11.8876C27.1011 12.6876 26.4185 13.3891 25.633 13.9625Z" fill="#2E2E2E"/>
</svg>
